<svg width="633" height="791" viewBox="0 0 633 791" fill="none" xmlns="http://www.w3.org/2000/svg">
<g clip-path="url(#clip0_1077_9091)">
<rect x="50" y="381" width="533" height="220" fill="#9DC6A1"/>
<rect x="85" y="536" width="355" height="111" fill="#9DC6A1"/>
<rect x="140" y="601" width="325" height="98" fill="#9DC6A1"/>
<rect x="127" y="583" width="325" height="98" fill="#9DC6A1"/>
<rect x="220" y="545" width="326" height="111" fill="#9DC6A1"/>
<rect x="308" y="570" width="181" height="111" fill="#9DC6A1"/>
<rect x="212" y="626" width="214" height="123" fill="#9DC6A1"/>
<rect x="115" y="115" width="403" height="149" fill="#AAD5F7"/>
<rect x="220" y="71" width="194" height="88" fill="#AAD5F7"/>
<rect x="251" y="47" width="132" height="47" fill="#AAD5F7"/>
<rect x="-17" y="151" width="647" height="245" fill="#AAD5F7"/>
<path d="M316.5 25C321.558 25 326.448 26.7991 330.297 30.0713C402.288 92.9147 506.317 143.647 593.438 143.647C597.304 143.647 601.009 145.183 603.739 147.912C606.469 150.64 608 154.338 608 158.191V434.995C608 527.247 575.991 595.151 525.294 647.14C473.95 699.792 402.324 737.203 321.886 765.243C318.724 766.303 315.293 766.248 312.167 765.084L311.602 764.881L307.826 763.568C228.683 735.863 158.348 698.881 107.739 647.074C57.009 595.143 25.0001 527.248 25 434.995V158.191C25 154.338 26.5312 150.64 29.2607 147.912C31.9908 145.183 35.6964 143.647 39.5625 143.647C126.703 143.647 231.127 92.5018 302.699 30.0742C306.549 26.8 311.441 25 316.5 25Z" stroke="#0A2D7B" stroke-width="50" stroke-linecap="round" stroke-linejoin="round"/>
</g>
<defs>
<clipPath id="clip0_1077_9091">
<rect width="633" height="791" fill="white"/>
</clipPath>
</defs>
</svg>
