<svg width="100" height="110" viewBox="0 0 100 110" fill="none" xmlns="http://www.w3.org/2000/svg">
<path d="M10 47H90C94.4183 47 98 50.5817 98 55V100C98 104.418 94.4183 108 90 108H10C5.58172 108 2 104.418 2 100V55C2 50.5817 5.58172 47 10 47Z" fill="#E4EFF9" stroke="#0C305B" stroke-width="4"/>
<path d="M50 2C59.3574 2 68.2887 5.28444 74.8389 11.0674C81.3809 16.8433 85 24.6198 85 32.667V47H70.5V35.9336C70.5 30.9853 68.2714 26.2981 64.4053 22.8848C60.5471 19.4785 55.3621 17.5996 50 17.5996C44.6379 17.5996 39.4529 19.4785 35.5947 22.8848C31.7286 26.2981 29.5 30.9852 29.5 35.9336V47H15V32.667C15 24.6198 18.6191 16.8433 25.1611 11.0674C31.7113 5.28444 40.6426 2 50 2Z" fill="#0C305B" stroke="#0C305B" stroke-width="4" stroke-linejoin="round"/>
<circle cx="50" cy="74" r="8.5" fill="#0C305B" stroke="#0C305B"/>
<rect x="47.5" y="80.5" width="5" height="10" rx="1.5" fill="#0C305B" stroke="#0C305B"/>
</svg>
