<svg width="240" height="240" viewBox="29 22 180 190" fill="none" xmlns="http://www.w3.org/2000/svg">
<path d="M43.666 47.514L185.319 37.608Q194.297 36.9805 194.925 45.959L203.006 161.52L170.388 199.041L54.826 207.123Q45.8484 207.751 45.221 198.773L35.315 57.119Q34.6875 48.1414 43.666 47.514Z" fill="white" stroke="#94A3B8" stroke-width="5" stroke-linejoin="round"/>
<path d="M203.009 161.523L167.938 163.975L170.391 199.045L203.009 161.523Z" fill="#ECE6DE"/>
<path d="M120.188 63.75C129.831 63.75 137.648 55.9325 137.648 46.2891C137.648 36.6457 129.831 28.8281 120.188 28.8281C110.544 28.8281 102.727 36.6457 102.727 46.2891C102.727 55.9325 110.544 63.75 120.188 63.75Z" fill="#1E2D3E" stroke="white" stroke-width="2.5"/>
<path d="M120.188 60.9375V93.2812" stroke="#1E2D3E" stroke-width="7.5" stroke-linecap="round"/>
<path d="M77.8125 128.438L164.062 122.344" stroke="#2A9D8F" stroke-width="15" stroke-linecap="round"/>
</svg>
